<svg xmlns="http://www.w3.org/2000/svg" width="141.73" height="141.73" viewBox="0 0 141.73 141.73">
  <g id="Group_21" data-name="Group 21" transform="translate(-56.698 -255.12)">
    <g id="Group_19" data-name="Group 19">
      <path id="Path_19" data-name="Path 19" d="M198.428,379.49v7.9a9.46,9.46,0,0,1-9.46,9.46H56.7V264.58a9.468,9.468,0,0,1,9.47-9.46h7.84a29.941,29.941,0,0,1,29.94,29.94v7.84a9.453,9.453,0,0,0,9.46,9.46h7.82a29.964,29.964,0,0,1,29.96,29.97v7.81a9.468,9.468,0,0,0,9.46,9.47h7.9A29.877,29.877,0,0,1,198.428,379.49Z" fill="#e61118"/>
    </g>
    <g id="Group_20" data-name="Group 20">
      <path id="Path_20" data-name="Path 20" d="M161.538,384.38v5.67a6.9,6.9,0,0,1-7,6.8H56.7V301.84a6.845,6.845,0,0,1,.14-1.37,6.949,6.949,0,0,1,6.86-5.43h5.8c12.23,0,22.15,9.63,22.15,21.5v5.64a6.9,6.9,0,0,0,7,6.8h5.78c12.24,0,22.16,9.63,22.16,21.52v5.62a6.9,6.9,0,0,0,7,6.79h5.85C151.648,362.91,161.538,372.52,161.538,384.38Z" fill="#e89fc6"/>
    </g>
    <path id="Path_21" data-name="Path 21" d="M99.015,396.647v.2H56.7V354.33h.167A42.317,42.317,0,0,1,99.015,396.647Z" fill="#e61118"/>
  </g>
</svg>
