<svg xmlns="http://www.w3.org/2000/svg" width="141.73" height="141.73" viewBox="0 0 141.73 141.73">
  <g id="Group_27" data-name="Group 27" transform="translate(-255.118 -56.7)">
    <g id="Group_25" data-name="Group 25">
      <path id="Path_26" data-name="Path 26" d="M297.438,198.22v.21h-42.32V155.91h.17A42.311,42.311,0,0,1,297.438,198.22Z" fill="#e89fc6"/>
      <path id="Path_27" data-name="Path 27" d="M396.848,181.07v7.9a9.459,9.459,0,0,1-9.46,9.46h-34.43a6.9,6.9,0,0,0,7-6.8v-5.67c0-11.86-9.89-21.47-22.1-21.47h-5.85a6.9,6.9,0,0,1-7-6.79v-5.62c0-11.89-9.92-21.52-22.16-21.52h-5.78a6.9,6.9,0,0,1-7-6.8v-5.64c0-11.87-9.92-21.5-22.15-21.5h-5.8a6.949,6.949,0,0,0-6.86,5.43,6.845,6.845,0,0,0-.14,1.37V66.16a9.468,9.468,0,0,1,9.47-9.46h7.84a29.941,29.941,0,0,1,29.94,29.94v7.84a9.453,9.453,0,0,0,9.46,9.46h7.82a29.964,29.964,0,0,1,29.96,29.97v7.81a9.468,9.468,0,0,0,9.46,9.47h7.9A29.877,29.877,0,0,1,396.848,181.07Z" fill="#e89fc6"/>
    </g>
    <g id="Group_26" data-name="Group 26">
      <path id="Path_28" data-name="Path 28" d="M297.438,198.22v.21h-42.32V155.91h.17A42.311,42.311,0,0,1,297.438,198.22Z" fill="#f8f9fc"/>
    </g>
    <path id="Path_29" data-name="Path 29" d="M297.438,198.22v.21h-42.32V155.91h.17A42.311,42.311,0,0,1,297.438,198.22Z" fill="#e89fc6"/>
  </g>
</svg>
